<?xml version="1.0" encoding="utf-8"?>
<!DOCTYPE svg PUBLIC "-//W3C//DTD SVG 1.0//EN" "http://www.w3.org/TR/2001/REC-SVG-20010904/DTD/svg10.dtd">
<svg version="1.0" id="Livello_1" xmlns="http://www.w3.org/2000/svg" xmlns:xlink="http://www.w3.org/1999/xlink" x="0px" y="0px" viewBox="0 0 510 510" enable-background="new 0 0 510 510" xml:space="preserve">
<rect x="6" y="6" fill="transparent" width="499" height="501"/>
<path fill="transparent" d="M500.553,255.207c0,135.325-109.695,245-245.006,245c-135.312,0-244.994-109.675-244.994-245
	c0-135.312,109.682-245,244.994-245C390.857,10.207,500.553,119.895,500.553,255.207z"/>
<path fill="#b6b6b6" d="M298.741,436.439c0,0-30.858-69.016-0.875-116.607c0,0,55.4-58.263,57.938-145.023
	c0,0-53.67,42.458-124.124,29.625c-70.453-12.837,1.014,4.24,1.014,4.24s150.163-25.948,120.73-89.01
	c0,0-30.04-51.83-134.845-19.046c0,0-172.459,49.258-52.887,128.549c0,0-42.269,67.604,45.951,64.519
	c0,0-34.479,32.484,14.891,54.846C226.535,348.531,227.102,414.901,298.741,436.439"/>
</svg>
